<svg width="47" height="70" viewBox="0 0 47 70" fill="none" xmlns="http://www.w3.org/2000/svg">
    <path d="M27.2616 19.8608C26.8789 22.5599 25.447 25.0075 23.4653 26.7864C21.4836 28.5642 18.9489 29.6526 16.3385 29.6742H16.3195H16.2985C11.0777 29.6526 7.45065 25.26 8.23704 19.8608C8.61971 17.1618 10.0306 14.7141 12.0123 12.9353C13.9951 11.1575 16.5298 10.0701 19.1381 10.0485H19.1591H19.1802C19.3841 10.0485 19.587 10.0485 19.792 10.0701L19.0593 15.2157C18.8542 15.1748 18.6492 15.1543 18.4253 15.1543C15.9179 15.1748 13.5777 17.2675 13.1919 19.8608C12.826 22.4347 14.5649 24.548 17.0733 24.548C18.8111 24.548 20.4512 23.5221 21.4268 22.041H18.0763L18.686 17.8198H27.3383L27.3615 18.5005C27.3741 18.9396 27.3278 19.4013 27.2616 19.8608ZM37.9976 28.9568L42.2092 0H6.30472L0 43.4337H9.00344L7.71559 52.3927H16.7674L6.80515 58.7303L5.18508 70H41.0895L47 28.9568H37.9976Z"

          fill="rgba(56, 56, 57, 0.5)"></path>
</svg>